Coordinates
version=1
nRows=62
nColumns=11
inDegrees=no

Units are S.I. units (second, meters, Newtons, ...)
If the header above contains a line with 'inDegrees', this indicates whether rotational values are in degrees (yes) or radians (no).

endheader
time	pelvis_tilt	pelvis_tx	pelvis_ty	hip_flexion_r	knee_angle_r	ankle_angle_r	hip_flexion_l	knee_angle_l	ankle_angle_l	lumbar_extension
105.01	-0.0379038	0.0559457	1.01753	0.493018	-0.927525	0.0976964	0.100065	-0.263974	0.280445	0
105.02	-0.0383915	0.0546004	1.01729	0.505642	-0.879863	0.104308	0.0829599	-0.25522	0.288339	0
105.03	-0.0389167	0.0535113	1.01671	0.515753	-0.827703	0.110279	0.0655157	-0.245673	0.297694	0
105.04	-0.0410272	0.052	1.01559	0.527	-0.772721	0.109843	0.0504866	-0.236653	0.306243	0
105.05	-0.0430397	0.0503884	1.01426	0.535549	-0.713047	0.103062	0.036036	-0.230261	0.315235	0
105.06	-0.0433984	0.0496154	1.01289	0.538834	-0.647943	0.095488	0.0184031	-0.222201	0.322004	0
105.07	-0.0426142	0.0490708	1.01142	0.537648	-0.578007	0.083997	-0.000527554	-0.213818	0.330695	0
105.08	-0.04281	0.0484204	1.00961	0.535748	-0.50585	0.0682288	-0.0180377	-0.206307	0.337496	0
105.09	-0.0423602	0.0480843	1.00766	0.531743	-0.433423	0.0528288	-0.0371065	-0.198708	0.345864	0
105.1	-0.0411523	0.0480274	1.00576	0.52641	-0.363071	0.0425454	-0.0561212	-0.192505	0.359002	0
105.11	-0.0396521	0.0481801	1.00351	0.520533	-0.295249	0.0386711	-0.0759027	-0.186946	0.367303	0
105.12	-0.0516153	0.0468829	0.999955	0.531809	-0.231017	0.0321763	-0.0819174	-0.171336	0.373193	0
105.13	-0.0522614	0.0462717	0.997311	0.53049	-0.177106	0.0222495	-0.101432	-0.160949	0.379758	0
105.14	-0.0493609	0.0472911	0.994766	0.526159	-0.127951	0.0145495	-0.122841	-0.153327	0.38951	0
105.15	-0.0497312	0.0474423	0.99186	0.525723	-0.0858666	0.0112671	-0.1386	-0.14974	0.403362	0
105.16	-0.049348	0.0476284	0.988939	0.525778	-0.0534118	0.0103442	-0.15484	-0.149994	0.407809	0
105.17	-0.031032	0.0498445	0.987638	0.508277	-0.0380026	0.0115037	-0.189985	-0.158768	0.41613	0
105.18	-0.049589	0.0478989	0.983059	0.534865	-0.0253367	0.0161821	-0.1848	-0.150524	0.420785	0
105.19	-0.0505159	0.04793	0.980301	0.543945	-0.0317127	0.0204712	-0.198556	-0.149656	0.426621	0
105.2	-0.0525258	0.0477344	0.977482	0.555737	-0.0498519	0.0227376	-0.209299	-0.151995	0.431404	0
105.21	-0.0366068	0.0503239	0.976054	0.548944	-0.0820869	0.023719	-0.239107	-0.162734	0.430514	0
105.22	-0.0564887	0.0481622	0.971616	0.580676	-0.11134	0.0297787	-0.229839	-0.163802	0.422521	0
105.23	-0.0567354	0.0494926	0.969452	0.587529	-0.146287	0.0358884	-0.241054	-0.169953	0.434195	0
105.24	-0.0564375	0.0508274	0.967568	0.591935	-0.18007	0.0326226	-0.252401	-0.177324	0.441238	0
105.25	-0.0568229	0.0518609	0.965608	0.595835	-0.211279	0.0298622	-0.262399	-0.1866	0.43665	0
105.26	-0.0583296	0.0528351	0.963909	0.599	-0.236195	0.0230757	-0.269148	-0.199684	0.424172	0
105.27	-0.049018	0.0555882	0.963227	0.586898	-0.25564	0.00257133	-0.286944	-0.218177	0.414187	0
105.28	-0.0141501	0.0502594	0.964501	0.562796	-0.283153	-0.0304348	-0.314829	-0.24885	0.405052	0
105.29	-0.0208751	0.0519867	0.963142	0.566716	-0.297855	-0.0556802	-0.313023	-0.266526	0.387803	0
105.3	-0.0297463	0.0534086	0.962095	0.577754	-0.324352	-0.0621727	-0.305848	-0.288677	0.370167	0
105.31	-0.0354082	0.0547452	0.961541	0.592889	-0.366672	-0.0492814	-0.298883	-0.31538	0.348628	0
105.32	-0.0382398	0.0567405	0.961258	0.608536	-0.417736	-0.0268895	-0.291645	-0.348212	0.323147	0
105.33	-0.0400106	0.0589776	0.96121	0.620657	-0.465191	-0.00413315	-0.280943	-0.387732	0.289735	0
105.34	-0.0414104	0.0608973	0.961541	0.627837	-0.504375	0.0201803	-0.265012	-0.434504	0.249315	0
105.35	-0.0413577	0.0624818	0.962195	0.628041	-0.534003	0.0467522	-0.244847	-0.488704	0.202798	0
105.36	-0.0420104	0.0634982	0.963061	0.624258	-0.554637	0.0699776	-0.218537	-0.548994	0.151492	0
105.37	-0.0441193	0.0640722	0.964227	0.617286	-0.565662	0.0895974	-0.186099	-0.613852	0.0971697	0
105.38	-0.0455658	0.0643335	0.96584	0.606231	-0.570163	0.109387	-0.151524	-0.679631	0.0423372	0
105.39	-0.0450631	0.0644516	0.967617	0.591547	-0.572214	0.131109	-0.117286	-0.744725	-0.0157157	0
105.4	-0.0439695	0.0645356	0.96953	0.574298	-0.570771	0.152484	-0.0822773	-0.807766	-0.0734691	0
105.41	-0.0415293	0.0645798	0.971682	0.555994	-0.569656	0.171925	-0.0476094	-0.867143	-0.121448	0
105.42	-0.0397525	0.0644444	0.973818	0.537857	-0.56787	0.191406	-0.0134386	-0.923144	-0.137444	0
105.43	-0.0406155	0.0641137	0.976005	0.522034	-0.564492	0.205256	0.0204097	-0.972696	-0.121318	0
105.44	-0.04163	0.063558	0.978407	0.507877	-0.562345	0.214872	0.0534683	-1.01448	-0.0934339	0
105.45	-0.043636	0.0627348	0.98062	0.495889	-0.561243	0.223062	0.0893098	-1.05334	-0.0728243	0
105.46	-0.0465886	0.0619627	0.982678	0.484536	-0.559748	0.233348	0.127655	-1.0893	-0.0622263	0
105.47	-0.0487788	0.061015	0.985077	0.470647	-0.555466	0.243526	0.165475	-1.11913	-0.0591601	0
105.48	-0.0503535	0.0598008	0.9877	0.45371	-0.546097	0.25118	0.201874	-1.14236	-0.0561846	0
105.49	-0.0517494	0.0587394	0.990405	0.435366	-0.534496	0.256572	0.235641	-1.15782	-0.0493615	0
105.5	-0.0518684	0.0577606	0.993321	0.415761	-0.52366	0.259853	0.266416	-1.16796	-0.036313	0
105.51	-0.0512372	0.0563576	0.996079	0.395404	-0.512464	0.26575	0.297142	-1.17461	-0.021543	0
105.52	-0.0495825	0.0552903	0.998957	0.371423	-0.496573	0.271455	0.32404	-1.17419	-0.00817077	0
105.53	-0.0482712	0.0542075	1.0015	0.347901	-0.480479	0.276026	0.34941	-1.16815	0.00497009	0
105.54	-0.0460598	0.0530706	1.00415	0.323576	-0.465	0.279663	0.372572	-1.15708	0.0193263	0
105.55	-0.0428255	0.0522933	1.00683	0.296837	-0.446748	0.284292	0.393134	-1.14066	0.0345011	0
105.56	-0.0398581	0.0514814	1.00922	0.270464	-0.427978	0.287188	0.412949	-1.11976	0.0484658	0
105.57	-0.0371341	0.0508798	1.01132	0.243611	-0.408438	0.288425	0.430017	-1.09242	0.0571025	0
105.58	-0.0347388	0.0500681	1.01332	0.217202	-0.389285	0.29214	0.445833	-1.05998	0.0625051	0
105.59	-0.0337956	0.0490139	1.01495	0.193617	-0.371602	0.296642	0.462133	-1.02348	0.0695387	0
105.6	-0.0330791	0.0479978	1.01617	0.170529	-0.353807	0.300344	0.476489	-0.982397	0.0798795	0
105.61	-0.0328482	0.0471112	1.01693	0.14817	-0.337525	0.303528	0.48952	-0.937674	0.0886262	0
105.62	-0.032519	0.0464421	1.01755	0.126466	-0.323416	0.308509	0.499643	-0.887515	0.092598	0
